G04 #@! TF.GenerationSoftware,KiCad,Pcbnew,5.1.0-060a0da~80~ubuntu18.04.1*
G04 #@! TF.CreationDate,2019-04-15T09:18:46-04:00*
G04 #@! TF.ProjectId,overvoltage,6f766572-766f-46c7-9461-67652e6b6963,1*
G04 #@! TF.SameCoordinates,Original*
G04 #@! TF.FileFunction,Legend,Top*
G04 #@! TF.FilePolarity,Positive*
%FSLAX46Y46*%
G04 Gerber Fmt 4.6, Leading zero omitted, Abs format (unit mm)*
G04 Created by KiCad (PCBNEW 5.1.0-060a0da~80~ubuntu18.04.1) date 2019-04-15 09:18:46*
%MOMM*%
%LPD*%
G04 APERTURE LIST*
%ADD10C,0.127000*%
%ADD11C,0.200000*%
%ADD12C,0.120000*%
%ADD13C,0.150000*%
G04 APERTURE END LIST*
D10*
X113522000Y-69215000D02*
X113522000Y-75565000D01*
X113522000Y-75565000D02*
X54118000Y-75565000D01*
X54118000Y-75565000D02*
X54118000Y-69215000D01*
X54118000Y-69215000D02*
X113522000Y-69215000D01*
D11*
X111640000Y-76565000D02*
G75*
G03X111640000Y-76565000I-100000J0D01*
G01*
D12*
X87908000Y-46990000D02*
X88678000Y-46990000D01*
X95988000Y-46990000D02*
X95218000Y-46990000D01*
X88678000Y-48360000D02*
X95218000Y-48360000D01*
X88678000Y-45620000D02*
X88678000Y-48360000D01*
X95218000Y-45620000D02*
X88678000Y-45620000D01*
X95218000Y-48360000D02*
X95218000Y-45620000D01*
X76430000Y-46990000D02*
X75660000Y-46990000D01*
X68350000Y-46990000D02*
X69120000Y-46990000D01*
X75660000Y-45620000D02*
X69120000Y-45620000D01*
X75660000Y-48360000D02*
X75660000Y-45620000D01*
X69120000Y-48360000D02*
X75660000Y-48360000D01*
X69120000Y-45620000D02*
X69120000Y-48360000D01*
X69850000Y-55650000D02*
X69850000Y-56420000D01*
X69850000Y-63730000D02*
X69850000Y-62960000D01*
X68480000Y-56420000D02*
X68480000Y-62960000D01*
X71220000Y-56420000D02*
X68480000Y-56420000D01*
X71220000Y-62960000D02*
X71220000Y-56420000D01*
X68480000Y-62960000D02*
X71220000Y-62960000D01*
X73660000Y-63730000D02*
X73660000Y-62960000D01*
X73660000Y-55650000D02*
X73660000Y-56420000D01*
X75030000Y-62960000D02*
X75030000Y-56420000D01*
X72290000Y-62960000D02*
X75030000Y-62960000D01*
X72290000Y-56420000D02*
X72290000Y-62960000D01*
X75030000Y-56420000D02*
X72290000Y-56420000D01*
X77470000Y-55650000D02*
X77470000Y-56420000D01*
X77470000Y-63730000D02*
X77470000Y-62960000D01*
X76100000Y-56420000D02*
X76100000Y-62960000D01*
X78840000Y-56420000D02*
X76100000Y-56420000D01*
X78840000Y-62960000D02*
X78840000Y-56420000D01*
X76100000Y-62960000D02*
X78840000Y-62960000D01*
X88900000Y-63730000D02*
X88900000Y-62960000D01*
X88900000Y-55650000D02*
X88900000Y-56420000D01*
X90270000Y-62960000D02*
X90270000Y-56420000D01*
X87530000Y-62960000D02*
X90270000Y-62960000D01*
X87530000Y-56420000D02*
X87530000Y-62960000D01*
X90270000Y-56420000D02*
X87530000Y-56420000D01*
X92710000Y-63730000D02*
X92710000Y-62960000D01*
X92710000Y-55650000D02*
X92710000Y-56420000D01*
X94080000Y-62960000D02*
X94080000Y-56420000D01*
X91340000Y-62960000D02*
X94080000Y-62960000D01*
X91340000Y-56420000D02*
X91340000Y-62960000D01*
X94080000Y-56420000D02*
X91340000Y-56420000D01*
X96520000Y-63730000D02*
X96520000Y-62960000D01*
X96520000Y-55650000D02*
X96520000Y-56420000D01*
X97890000Y-62960000D02*
X97890000Y-56420000D01*
X95150000Y-62960000D02*
X97890000Y-62960000D01*
X95150000Y-56420000D02*
X95150000Y-62960000D01*
X97890000Y-56420000D02*
X95150000Y-56420000D01*
X45151522Y-41208478D02*
G75*
G03X49590000Y-39370000I1838478J1838478D01*
G01*
X45151522Y-37531522D02*
G75*
G02X49590000Y-39370000I1838478J-1838478D01*
G01*
X45140000Y-37570000D02*
X45140000Y-41170000D01*
X118800000Y-37570000D02*
X118800000Y-41170000D01*
X118811522Y-37531522D02*
G75*
G02X123250000Y-39370000I1838478J-1838478D01*
G01*
X118811522Y-41208478D02*
G75*
G03X123250000Y-39370000I1838478J1838478D01*
G01*
X56000000Y-61000000D02*
X56000000Y-50760000D01*
X40110000Y-61000000D02*
X40110000Y-50760000D01*
X40110000Y-61000000D02*
X56000000Y-61000000D01*
X40110000Y-50760000D02*
X56000000Y-50760000D01*
X56000000Y-58420000D02*
X58540000Y-58420000D01*
X56000000Y-55880000D02*
X58540000Y-55880000D01*
X56000000Y-53340000D02*
X58540000Y-53340000D01*
X109100000Y-58420000D02*
X106560000Y-58420000D01*
X109100000Y-55880000D02*
X106560000Y-55880000D01*
X109100000Y-53340000D02*
X106560000Y-53340000D01*
X124990000Y-61000000D02*
X109100000Y-61000000D01*
X124990000Y-50760000D02*
X109100000Y-50760000D01*
X124990000Y-50760000D02*
X124990000Y-61000000D01*
X109100000Y-50760000D02*
X109100000Y-61000000D01*
X83620000Y-61630000D02*
X86560000Y-61630000D01*
X83620000Y-61390000D02*
X86560000Y-61390000D01*
X83620000Y-61510000D02*
X86560000Y-61510000D01*
X85090000Y-55750000D02*
X85090000Y-56970000D01*
X85090000Y-63630000D02*
X85090000Y-62410000D01*
X83620000Y-56970000D02*
X83620000Y-62410000D01*
X86560000Y-56970000D02*
X83620000Y-56970000D01*
X86560000Y-62410000D02*
X86560000Y-56970000D01*
X83620000Y-62410000D02*
X86560000Y-62410000D01*
X79810000Y-62410000D02*
X82750000Y-62410000D01*
X82750000Y-62410000D02*
X82750000Y-56970000D01*
X82750000Y-56970000D02*
X79810000Y-56970000D01*
X79810000Y-56970000D02*
X79810000Y-62410000D01*
X81280000Y-63630000D02*
X81280000Y-62410000D01*
X81280000Y-55750000D02*
X81280000Y-56970000D01*
X79810000Y-61510000D02*
X82750000Y-61510000D01*
X79810000Y-61390000D02*
X82750000Y-61390000D01*
X79810000Y-61630000D02*
X82750000Y-61630000D01*
D11*
X111640000Y-43545000D02*
G75*
G03X111640000Y-43545000I-100000J0D01*
G01*
D10*
X54118000Y-36195000D02*
X113522000Y-36195000D01*
X54118000Y-42545000D02*
X54118000Y-36195000D01*
X113522000Y-42545000D02*
X54118000Y-42545000D01*
X113522000Y-36195000D02*
X113522000Y-42545000D01*
D12*
X66040000Y-55810000D02*
X66040000Y-57100000D01*
X66040000Y-63730000D02*
X66040000Y-62440000D01*
X64370000Y-57100000D02*
X64370000Y-62440000D01*
X67710000Y-57100000D02*
X64370000Y-57100000D01*
X67710000Y-62440000D02*
X67710000Y-57100000D01*
X64370000Y-62440000D02*
X67710000Y-62440000D01*
X102000000Y-56940000D02*
X98660000Y-56940000D01*
X98660000Y-56940000D02*
X98660000Y-62280000D01*
X98660000Y-62280000D02*
X102000000Y-62280000D01*
X102000000Y-62280000D02*
X102000000Y-56940000D01*
X100330000Y-55650000D02*
X100330000Y-56940000D01*
X100330000Y-63570000D02*
X100330000Y-62280000D01*
D13*
X110166000Y-67943333D02*
X109366000Y-67943333D01*
X109766000Y-67943333D02*
X109766000Y-66543333D01*
X109632666Y-66743333D01*
X109499333Y-66876666D01*
X109366000Y-66943333D01*
X111166000Y-66543333D02*
X111166000Y-67543333D01*
X111099333Y-67743333D01*
X110966000Y-67876666D01*
X110766000Y-67943333D01*
X110632666Y-67943333D01*
X111766000Y-66676666D02*
X111832666Y-66610000D01*
X111966000Y-66543333D01*
X112299333Y-66543333D01*
X112432666Y-66610000D01*
X112499333Y-66676666D01*
X112566000Y-66810000D01*
X112566000Y-66943333D01*
X112499333Y-67143333D01*
X111699333Y-67943333D01*
X112566000Y-67943333D01*
X91781333Y-47442380D02*
X91448000Y-46966190D01*
X91209904Y-47442380D02*
X91209904Y-46442380D01*
X91590857Y-46442380D01*
X91686095Y-46490000D01*
X91733714Y-46537619D01*
X91781333Y-46632857D01*
X91781333Y-46775714D01*
X91733714Y-46870952D01*
X91686095Y-46918571D01*
X91590857Y-46966190D01*
X91209904Y-46966190D01*
X92162285Y-46537619D02*
X92209904Y-46490000D01*
X92305142Y-46442380D01*
X92543238Y-46442380D01*
X92638476Y-46490000D01*
X92686095Y-46537619D01*
X92733714Y-46632857D01*
X92733714Y-46728095D01*
X92686095Y-46870952D01*
X92114666Y-47442380D01*
X92733714Y-47442380D01*
X72223333Y-47442380D02*
X71890000Y-46966190D01*
X71651904Y-47442380D02*
X71651904Y-46442380D01*
X72032857Y-46442380D01*
X72128095Y-46490000D01*
X72175714Y-46537619D01*
X72223333Y-46632857D01*
X72223333Y-46775714D01*
X72175714Y-46870952D01*
X72128095Y-46918571D01*
X72032857Y-46966190D01*
X71651904Y-46966190D01*
X73175714Y-47442380D02*
X72604285Y-47442380D01*
X72890000Y-47442380D02*
X72890000Y-46442380D01*
X72794761Y-46585238D01*
X72699523Y-46680476D01*
X72604285Y-46728095D01*
X70302380Y-59856666D02*
X69826190Y-60190000D01*
X70302380Y-60428095D02*
X69302380Y-60428095D01*
X69302380Y-60047142D01*
X69350000Y-59951904D01*
X69397619Y-59904285D01*
X69492857Y-59856666D01*
X69635714Y-59856666D01*
X69730952Y-59904285D01*
X69778571Y-59951904D01*
X69826190Y-60047142D01*
X69826190Y-60428095D01*
X69302380Y-59523333D02*
X69302380Y-58904285D01*
X69683333Y-59237619D01*
X69683333Y-59094761D01*
X69730952Y-58999523D01*
X69778571Y-58951904D01*
X69873809Y-58904285D01*
X70111904Y-58904285D01*
X70207142Y-58951904D01*
X70254761Y-58999523D01*
X70302380Y-59094761D01*
X70302380Y-59380476D01*
X70254761Y-59475714D01*
X70207142Y-59523333D01*
X74112380Y-59856666D02*
X73636190Y-60190000D01*
X74112380Y-60428095D02*
X73112380Y-60428095D01*
X73112380Y-60047142D01*
X73160000Y-59951904D01*
X73207619Y-59904285D01*
X73302857Y-59856666D01*
X73445714Y-59856666D01*
X73540952Y-59904285D01*
X73588571Y-59951904D01*
X73636190Y-60047142D01*
X73636190Y-60428095D01*
X73445714Y-58999523D02*
X74112380Y-58999523D01*
X73064761Y-59237619D02*
X73779047Y-59475714D01*
X73779047Y-58856666D01*
X77922380Y-59856666D02*
X77446190Y-60190000D01*
X77922380Y-60428095D02*
X76922380Y-60428095D01*
X76922380Y-60047142D01*
X76970000Y-59951904D01*
X77017619Y-59904285D01*
X77112857Y-59856666D01*
X77255714Y-59856666D01*
X77350952Y-59904285D01*
X77398571Y-59951904D01*
X77446190Y-60047142D01*
X77446190Y-60428095D01*
X76922380Y-58951904D02*
X76922380Y-59428095D01*
X77398571Y-59475714D01*
X77350952Y-59428095D01*
X77303333Y-59332857D01*
X77303333Y-59094761D01*
X77350952Y-58999523D01*
X77398571Y-58951904D01*
X77493809Y-58904285D01*
X77731904Y-58904285D01*
X77827142Y-58951904D01*
X77874761Y-58999523D01*
X77922380Y-59094761D01*
X77922380Y-59332857D01*
X77874761Y-59428095D01*
X77827142Y-59475714D01*
X89352380Y-59856666D02*
X88876190Y-60190000D01*
X89352380Y-60428095D02*
X88352380Y-60428095D01*
X88352380Y-60047142D01*
X88400000Y-59951904D01*
X88447619Y-59904285D01*
X88542857Y-59856666D01*
X88685714Y-59856666D01*
X88780952Y-59904285D01*
X88828571Y-59951904D01*
X88876190Y-60047142D01*
X88876190Y-60428095D01*
X88352380Y-58999523D02*
X88352380Y-59190000D01*
X88400000Y-59285238D01*
X88447619Y-59332857D01*
X88590476Y-59428095D01*
X88780952Y-59475714D01*
X89161904Y-59475714D01*
X89257142Y-59428095D01*
X89304761Y-59380476D01*
X89352380Y-59285238D01*
X89352380Y-59094761D01*
X89304761Y-58999523D01*
X89257142Y-58951904D01*
X89161904Y-58904285D01*
X88923809Y-58904285D01*
X88828571Y-58951904D01*
X88780952Y-58999523D01*
X88733333Y-59094761D01*
X88733333Y-59285238D01*
X88780952Y-59380476D01*
X88828571Y-59428095D01*
X88923809Y-59475714D01*
X93162380Y-59856666D02*
X92686190Y-60190000D01*
X93162380Y-60428095D02*
X92162380Y-60428095D01*
X92162380Y-60047142D01*
X92210000Y-59951904D01*
X92257619Y-59904285D01*
X92352857Y-59856666D01*
X92495714Y-59856666D01*
X92590952Y-59904285D01*
X92638571Y-59951904D01*
X92686190Y-60047142D01*
X92686190Y-60428095D01*
X92162380Y-59523333D02*
X92162380Y-58856666D01*
X93162380Y-59285238D01*
X96972380Y-59856666D02*
X96496190Y-60190000D01*
X96972380Y-60428095D02*
X95972380Y-60428095D01*
X95972380Y-60047142D01*
X96020000Y-59951904D01*
X96067619Y-59904285D01*
X96162857Y-59856666D01*
X96305714Y-59856666D01*
X96400952Y-59904285D01*
X96448571Y-59951904D01*
X96496190Y-60047142D01*
X96496190Y-60428095D01*
X96400952Y-59285238D02*
X96353333Y-59380476D01*
X96305714Y-59428095D01*
X96210476Y-59475714D01*
X96162857Y-59475714D01*
X96067619Y-59428095D01*
X96020000Y-59380476D01*
X95972380Y-59285238D01*
X95972380Y-59094761D01*
X96020000Y-58999523D01*
X96067619Y-58951904D01*
X96162857Y-58904285D01*
X96210476Y-58904285D01*
X96305714Y-58951904D01*
X96353333Y-58999523D01*
X96400952Y-59094761D01*
X96400952Y-59285238D01*
X96448571Y-59380476D01*
X96496190Y-59428095D01*
X96591428Y-59475714D01*
X96781904Y-59475714D01*
X96877142Y-59428095D01*
X96924761Y-59380476D01*
X96972380Y-59285238D01*
X96972380Y-59094761D01*
X96924761Y-58999523D01*
X96877142Y-58951904D01*
X96781904Y-58904285D01*
X96591428Y-58904285D01*
X96496190Y-58951904D01*
X96448571Y-58999523D01*
X96400952Y-59094761D01*
X51097619Y-39465238D02*
X51050000Y-39560476D01*
X50954761Y-39655714D01*
X50811904Y-39798571D01*
X50764285Y-39893809D01*
X50764285Y-39989047D01*
X51002380Y-39941428D02*
X50954761Y-40036666D01*
X50859523Y-40131904D01*
X50669047Y-40179523D01*
X50335714Y-40179523D01*
X50145238Y-40131904D01*
X50050000Y-40036666D01*
X50002380Y-39941428D01*
X50002380Y-39750952D01*
X50050000Y-39655714D01*
X50145238Y-39560476D01*
X50335714Y-39512857D01*
X50669047Y-39512857D01*
X50859523Y-39560476D01*
X50954761Y-39655714D01*
X51002380Y-39750952D01*
X51002380Y-39941428D01*
X51002380Y-38560476D02*
X51002380Y-39131904D01*
X51002380Y-38846190D02*
X50002380Y-38846190D01*
X50145238Y-38941428D01*
X50240476Y-39036666D01*
X50288095Y-39131904D01*
X117387619Y-39465238D02*
X117340000Y-39560476D01*
X117244761Y-39655714D01*
X117101904Y-39798571D01*
X117054285Y-39893809D01*
X117054285Y-39989047D01*
X117292380Y-39941428D02*
X117244761Y-40036666D01*
X117149523Y-40131904D01*
X116959047Y-40179523D01*
X116625714Y-40179523D01*
X116435238Y-40131904D01*
X116340000Y-40036666D01*
X116292380Y-39941428D01*
X116292380Y-39750952D01*
X116340000Y-39655714D01*
X116435238Y-39560476D01*
X116625714Y-39512857D01*
X116959047Y-39512857D01*
X117149523Y-39560476D01*
X117244761Y-39655714D01*
X117292380Y-39750952D01*
X117292380Y-39941428D01*
X116387619Y-39131904D02*
X116340000Y-39084285D01*
X116292380Y-38989047D01*
X116292380Y-38750952D01*
X116340000Y-38655714D01*
X116387619Y-38608095D01*
X116482857Y-38560476D01*
X116578095Y-38560476D01*
X116720952Y-38608095D01*
X117292380Y-39179523D01*
X117292380Y-38560476D01*
X62777619Y-55975238D02*
X62730000Y-56070476D01*
X62634761Y-56165714D01*
X62491904Y-56308571D01*
X62444285Y-56403809D01*
X62444285Y-56499047D01*
X62682380Y-56451428D02*
X62634761Y-56546666D01*
X62539523Y-56641904D01*
X62349047Y-56689523D01*
X62015714Y-56689523D01*
X61825238Y-56641904D01*
X61730000Y-56546666D01*
X61682380Y-56451428D01*
X61682380Y-56260952D01*
X61730000Y-56165714D01*
X61825238Y-56070476D01*
X62015714Y-56022857D01*
X62349047Y-56022857D01*
X62539523Y-56070476D01*
X62634761Y-56165714D01*
X62682380Y-56260952D01*
X62682380Y-56451428D01*
X61682380Y-55689523D02*
X61682380Y-55070476D01*
X62063333Y-55403809D01*
X62063333Y-55260952D01*
X62110952Y-55165714D01*
X62158571Y-55118095D01*
X62253809Y-55070476D01*
X62491904Y-55070476D01*
X62587142Y-55118095D01*
X62634761Y-55165714D01*
X62682380Y-55260952D01*
X62682380Y-55546666D01*
X62634761Y-55641904D01*
X62587142Y-55689523D01*
X103417619Y-55975238D02*
X103370000Y-56070476D01*
X103274761Y-56165714D01*
X103131904Y-56308571D01*
X103084285Y-56403809D01*
X103084285Y-56499047D01*
X103322380Y-56451428D02*
X103274761Y-56546666D01*
X103179523Y-56641904D01*
X102989047Y-56689523D01*
X102655714Y-56689523D01*
X102465238Y-56641904D01*
X102370000Y-56546666D01*
X102322380Y-56451428D01*
X102322380Y-56260952D01*
X102370000Y-56165714D01*
X102465238Y-56070476D01*
X102655714Y-56022857D01*
X102989047Y-56022857D01*
X103179523Y-56070476D01*
X103274761Y-56165714D01*
X103322380Y-56260952D01*
X103322380Y-56451428D01*
X102655714Y-55165714D02*
X103322380Y-55165714D01*
X102274761Y-55403809D02*
X102989047Y-55641904D01*
X102989047Y-55022857D01*
X84542380Y-60999523D02*
X84542380Y-60332857D01*
X85542380Y-60999523D01*
X85542380Y-60332857D01*
X85542380Y-59380476D02*
X85066190Y-59713809D01*
X85542380Y-59951904D02*
X84542380Y-59951904D01*
X84542380Y-59570952D01*
X84590000Y-59475714D01*
X84637619Y-59428095D01*
X84732857Y-59380476D01*
X84875714Y-59380476D01*
X84970952Y-59428095D01*
X85018571Y-59475714D01*
X85066190Y-59570952D01*
X85066190Y-59951904D01*
X85542380Y-58428095D02*
X85542380Y-58999523D01*
X85542380Y-58713809D02*
X84542380Y-58713809D01*
X84685238Y-58809047D01*
X84780476Y-58904285D01*
X84828095Y-58999523D01*
X83642380Y-65031904D02*
X82642380Y-65031904D01*
X83642380Y-64460476D02*
X83070952Y-64889047D01*
X82642380Y-64460476D02*
X83213809Y-65031904D01*
X80732380Y-60999523D02*
X80732380Y-60332857D01*
X81732380Y-60999523D01*
X81732380Y-60332857D01*
X81732380Y-59380476D02*
X81256190Y-59713809D01*
X81732380Y-59951904D02*
X80732380Y-59951904D01*
X80732380Y-59570952D01*
X80780000Y-59475714D01*
X80827619Y-59428095D01*
X80922857Y-59380476D01*
X81065714Y-59380476D01*
X81160952Y-59428095D01*
X81208571Y-59475714D01*
X81256190Y-59570952D01*
X81256190Y-59951904D01*
X80827619Y-58999523D02*
X80780000Y-58951904D01*
X80732380Y-58856666D01*
X80732380Y-58618571D01*
X80780000Y-58523333D01*
X80827619Y-58475714D01*
X80922857Y-58428095D01*
X81018095Y-58428095D01*
X81160952Y-58475714D01*
X81732380Y-59047142D01*
X81732380Y-58428095D01*
X79832380Y-65031904D02*
X78832380Y-65031904D01*
X79832380Y-64460476D02*
X79260952Y-64889047D01*
X78832380Y-64460476D02*
X79403809Y-65031904D01*
X110166000Y-45067333D02*
X109366000Y-45067333D01*
X109766000Y-45067333D02*
X109766000Y-43667333D01*
X109632666Y-43867333D01*
X109499333Y-44000666D01*
X109366000Y-44067333D01*
X111166000Y-43667333D02*
X111166000Y-44667333D01*
X111099333Y-44867333D01*
X110966000Y-45000666D01*
X110766000Y-45067333D01*
X110632666Y-45067333D01*
X112566000Y-45067333D02*
X111766000Y-45067333D01*
X112166000Y-45067333D02*
X112166000Y-43667333D01*
X112032666Y-43867333D01*
X111899333Y-44000666D01*
X111766000Y-44067333D01*
X66397142Y-59856666D02*
X66444761Y-59904285D01*
X66492380Y-60047142D01*
X66492380Y-60142380D01*
X66444761Y-60285238D01*
X66349523Y-60380476D01*
X66254285Y-60428095D01*
X66063809Y-60475714D01*
X65920952Y-60475714D01*
X65730476Y-60428095D01*
X65635238Y-60380476D01*
X65540000Y-60285238D01*
X65492380Y-60142380D01*
X65492380Y-60047142D01*
X65540000Y-59904285D01*
X65587619Y-59856666D01*
X66492380Y-58904285D02*
X66492380Y-59475714D01*
X66492380Y-59190000D02*
X65492380Y-59190000D01*
X65635238Y-59285238D01*
X65730476Y-59380476D01*
X65778095Y-59475714D01*
X100687142Y-59776666D02*
X100734761Y-59824285D01*
X100782380Y-59967142D01*
X100782380Y-60062380D01*
X100734761Y-60205238D01*
X100639523Y-60300476D01*
X100544285Y-60348095D01*
X100353809Y-60395714D01*
X100210952Y-60395714D01*
X100020476Y-60348095D01*
X99925238Y-60300476D01*
X99830000Y-60205238D01*
X99782380Y-60062380D01*
X99782380Y-59967142D01*
X99830000Y-59824285D01*
X99877619Y-59776666D01*
X99877619Y-59395714D02*
X99830000Y-59348095D01*
X99782380Y-59252857D01*
X99782380Y-59014761D01*
X99830000Y-58919523D01*
X99877619Y-58871904D01*
X99972857Y-58824285D01*
X100068095Y-58824285D01*
X100210952Y-58871904D01*
X100782380Y-59443333D01*
X100782380Y-58824285D01*
M02*
