M48
; DRILL file {KiCad 5.1.0-060a0da~80~ubuntu18.04.1} date Mon 15 Apr 2019 09:30:14 AM EDT
; FORMAT={-:-/ absolute / inch / decimal}
; #@! TF.CreationDate,2019-04-15T09:30:14-04:00
; #@! TF.GenerationSoftware,Kicad,Pcbnew,5.1.0-060a0da~80~ubuntu18.04.1
; #@! TF.FileFunction,Plated,1,2,PTH
FMAT,2
INCH
T1C0.0157
T2C0.0295
T3C0.0315
T4C0.0354
T5C0.0433
T6C0.0600
%
G90
G05
T1
X2.0Y-2.65
X4.5Y-2.65
T2
X1.85Y-1.5
X1.85Y-1.6
X1.9Y-1.55
X4.75Y-1.5
X4.75Y-1.6
X4.8Y-1.55
T3
X3.5Y-2.15
X3.5Y-2.55
X2.75Y-2.15
X2.75Y-2.55
X2.9Y-2.15
X2.9Y-2.55
X2.6Y-2.1563
X2.6Y-2.55
X3.42Y-1.85
X3.82Y-1.85
X2.65Y-1.85
X3.05Y-1.85
X3.95Y-2.15
X3.95Y-2.5437
X3.65Y-2.15
X3.65Y-2.55
X3.05Y-2.15
X3.05Y-2.55
X3.8Y-2.15
X3.8Y-2.55
T4
X3.35Y-2.15
X3.35Y-2.55
X3.2Y-2.15
X3.2Y-2.55
T5
X2.35Y-2.1
X2.35Y-2.2
X2.35Y-2.3
X4.15Y-2.1
X4.15Y-2.2
X4.15Y-2.3
T6
X2.2087Y-2.85
X2.3646Y-2.85
X2.5205Y-2.85
X2.6764Y-2.85
X2.8323Y-2.85
X2.9882Y-2.85
X3.1441Y-2.85
X3.3Y-2.85
X3.4559Y-2.85
X3.6118Y-2.85
X3.7677Y-2.85
X3.9236Y-2.85
X4.0795Y-2.85
X4.2354Y-2.85
X4.3913Y-2.85
X2.2087Y-1.55
X2.3646Y-1.55
X2.5205Y-1.55
X2.6764Y-1.55
X2.8323Y-1.55
X2.9882Y-1.55
X3.1441Y-1.55
X3.3Y-1.55
X3.4559Y-1.55
X3.6118Y-1.55
X3.7677Y-1.55
X3.9236Y-1.55
X4.0795Y-1.55
X4.2354Y-1.55
X4.3913Y-1.55
T0
M30
