G04 #@! TF.GenerationSoftware,KiCad,Pcbnew,5.1.0-060a0da~80~ubuntu18.04.1*
G04 #@! TF.CreationDate,2019-04-15T09:18:46-04:00*
G04 #@! TF.ProjectId,overvoltage,6f766572-766f-46c7-9461-67652e6b6963,1*
G04 #@! TF.SameCoordinates,Original*
G04 #@! TF.FileFunction,Copper,L1,Top*
G04 #@! TF.FilePolarity,Positive*
%FSLAX46Y46*%
G04 Gerber Fmt 4.6, Leading zero omitted, Abs format (unit mm)*
G04 Created by KiCad (PCBNEW 5.1.0-060a0da~80~ubuntu18.04.1) date 2019-04-15 09:18:46*
%MOMM*%
%LPD*%
G04 APERTURE LIST*
%ADD10R,2.286000X2.286000*%
%ADD11C,2.286000*%
%ADD12O,1.600000X1.600000*%
%ADD13C,1.600000*%
%ADD14R,1.300000X1.300000*%
%ADD15C,1.300000*%
%ADD16R,2.000000X1.905000*%
%ADD17O,2.000000X1.905000*%
%ADD18O,1.800000X1.800000*%
%ADD19R,1.800000X1.800000*%
%ADD20C,0.800000*%
%ADD21C,1.000000*%
%ADD22C,0.254000*%
G04 APERTURE END LIST*
D10*
X111540000Y-72390000D03*
D11*
X107580000Y-72390000D03*
X103620000Y-72390000D03*
X99660000Y-72390000D03*
X95700000Y-72390000D03*
X91740000Y-72390000D03*
X87780000Y-72390000D03*
X83820000Y-72390000D03*
X79860000Y-72390000D03*
X75900000Y-72390000D03*
X71940000Y-72390000D03*
X67980000Y-72390000D03*
X64020000Y-72390000D03*
X60060000Y-72390000D03*
X56100000Y-72390000D03*
D12*
X86868000Y-46990000D03*
D13*
X97028000Y-46990000D03*
D12*
X77470000Y-46990000D03*
D13*
X67310000Y-46990000D03*
D12*
X69850000Y-54610000D03*
D13*
X69850000Y-64770000D03*
D12*
X73660000Y-64770000D03*
D13*
X73660000Y-54610000D03*
D12*
X77470000Y-54610000D03*
D13*
X77470000Y-64770000D03*
D12*
X88900000Y-64770000D03*
D13*
X88900000Y-54610000D03*
D12*
X92710000Y-64770000D03*
D13*
X92710000Y-54610000D03*
D12*
X96520000Y-64770000D03*
D13*
X96520000Y-54610000D03*
D14*
X46990000Y-38100000D03*
D15*
X46990000Y-40640000D03*
X48260000Y-39370000D03*
X121920000Y-39370000D03*
X120650000Y-40640000D03*
D14*
X120650000Y-38100000D03*
D16*
X59690000Y-58420000D03*
D17*
X59690000Y-55880000D03*
X59690000Y-53340000D03*
X105410000Y-58420000D03*
X105410000Y-55880000D03*
D16*
X105410000Y-53340000D03*
D18*
X85090000Y-54610000D03*
D19*
X85090000Y-64770000D03*
X81280000Y-64770000D03*
D18*
X81280000Y-54610000D03*
D11*
X56100000Y-39370000D03*
X60060000Y-39370000D03*
X64020000Y-39370000D03*
X67980000Y-39370000D03*
X71940000Y-39370000D03*
X75900000Y-39370000D03*
X79860000Y-39370000D03*
X83820000Y-39370000D03*
X87780000Y-39370000D03*
X91740000Y-39370000D03*
X95700000Y-39370000D03*
X99660000Y-39370000D03*
X103620000Y-39370000D03*
X107580000Y-39370000D03*
D10*
X111540000Y-39370000D03*
D12*
X66040000Y-54770000D03*
D13*
X66040000Y-64770000D03*
X100330000Y-54610000D03*
D12*
X100330000Y-64610000D03*
D20*
X50800000Y-67310004D03*
X114300000Y-67310000D03*
D21*
X71120000Y-57150000D02*
X73660000Y-54610000D01*
X68420000Y-57150000D02*
X71120000Y-57150000D01*
X66040000Y-54770000D02*
X68420000Y-57150000D01*
X73660000Y-54610000D02*
X77470000Y-54610000D01*
X92710000Y-54610000D02*
X88900000Y-54610000D01*
X104140000Y-58420000D02*
X100330000Y-54610000D01*
X105410000Y-58420000D02*
X104140000Y-58420000D01*
X71119996Y-67310004D02*
X50800000Y-67310004D01*
X73660000Y-64770000D02*
X71119996Y-67310004D01*
X67310000Y-46990000D02*
X69850000Y-49530000D01*
X48260000Y-39370000D02*
X55880000Y-46990000D01*
X69850000Y-49530000D02*
X69850000Y-54610000D01*
X55880000Y-46990000D02*
X67310000Y-46990000D01*
X88900000Y-46990000D02*
X96520000Y-54610000D01*
X86868000Y-46990000D02*
X88900000Y-46990000D01*
X103378000Y-61468000D02*
X96520000Y-54610000D01*
X122569999Y-40019999D02*
X122569999Y-42265131D01*
X121920000Y-39370000D02*
X122569999Y-40019999D01*
X106680000Y-61468000D02*
X103378000Y-61468000D01*
X122569999Y-42265131D02*
X111760000Y-53075130D01*
X111760000Y-53075130D02*
X111760000Y-56388000D01*
X111760000Y-56388000D02*
X106680000Y-61468000D01*
X95250000Y-67310000D02*
X92710000Y-64770000D01*
X114300000Y-67310000D02*
X95250000Y-67310000D01*
X81280000Y-62870000D02*
X81280000Y-64770000D01*
X80640000Y-62230000D02*
X81280000Y-62870000D01*
X72390000Y-62230000D02*
X80640000Y-62230000D01*
X69850000Y-64770000D02*
X72390000Y-62230000D01*
X95720001Y-63970001D02*
X96520000Y-64770000D01*
X85730000Y-62230000D02*
X93980000Y-62230000D01*
X93980000Y-62230000D02*
X95720001Y-63970001D01*
X85090000Y-62870000D02*
X85730000Y-62230000D01*
X85090000Y-64770000D02*
X85090000Y-62870000D01*
X75397514Y-46990000D02*
X77470000Y-46990000D01*
X67980000Y-39370000D02*
X67980000Y-39572486D01*
X67980000Y-39572486D02*
X75397514Y-46990000D01*
X105410000Y-53340000D02*
X105362500Y-53340000D01*
X96266000Y-46724000D02*
X103620000Y-39370000D01*
X96266000Y-46990000D02*
X96266000Y-46724000D01*
X107410000Y-55880000D02*
X108458000Y-54832000D01*
X105410000Y-55880000D02*
X107410000Y-55880000D01*
X108458000Y-44208000D02*
X103620000Y-39370000D01*
X108458000Y-54832000D02*
X108458000Y-44208000D01*
D22*
G36*
X103813748Y-39355858D02*
G01*
X103799605Y-39370000D01*
X104857360Y-40427755D01*
X104971796Y-40381402D01*
X108839000Y-44248606D01*
X108839000Y-55065394D01*
X107389394Y-56515000D01*
X106906713Y-56515000D01*
X106929571Y-56471094D01*
X107000563Y-56252980D01*
X106880594Y-56007000D01*
X105537000Y-56007000D01*
X105537000Y-56027000D01*
X105283000Y-56027000D01*
X105283000Y-56007000D01*
X105263000Y-56007000D01*
X105263000Y-55753000D01*
X105283000Y-55753000D01*
X105283000Y-55733000D01*
X105537000Y-55733000D01*
X105537000Y-55753000D01*
X106880594Y-55753000D01*
X107000563Y-55507020D01*
X106929571Y-55288906D01*
X106785969Y-55013077D01*
X106672781Y-54872059D01*
X106764494Y-54823037D01*
X106861185Y-54743685D01*
X106940537Y-54646994D01*
X106999502Y-54536680D01*
X107035812Y-54416982D01*
X107048072Y-54292500D01*
X107048072Y-52387500D01*
X107035812Y-52263018D01*
X106999502Y-52143320D01*
X106940537Y-52033006D01*
X106861185Y-51936315D01*
X106764494Y-51856963D01*
X106654180Y-51797998D01*
X106534482Y-51761688D01*
X106410000Y-51749428D01*
X104410000Y-51749428D01*
X104285518Y-51761688D01*
X104165820Y-51797998D01*
X104055506Y-51856963D01*
X103958815Y-51936315D01*
X103879463Y-52033006D01*
X103820498Y-52143320D01*
X103784188Y-52263018D01*
X103771928Y-52387500D01*
X103771928Y-54292500D01*
X103784188Y-54416982D01*
X103820498Y-54536680D01*
X103879463Y-54646994D01*
X103958815Y-54743685D01*
X104055506Y-54823037D01*
X104147219Y-54872059D01*
X104034031Y-55013077D01*
X103890429Y-55288906D01*
X103819437Y-55507020D01*
X103871278Y-55613312D01*
X97223617Y-48411681D01*
X97378130Y-48388787D01*
X97644292Y-48293603D01*
X97769514Y-48226671D01*
X97841097Y-47982702D01*
X97028000Y-47169605D01*
X97013858Y-47183748D01*
X96834253Y-47004143D01*
X96848395Y-46990000D01*
X97207605Y-46990000D01*
X98020702Y-47803097D01*
X98264671Y-47731514D01*
X98385571Y-47476004D01*
X98454300Y-47201816D01*
X98468217Y-46919488D01*
X98426787Y-46639870D01*
X98331603Y-46373708D01*
X98264671Y-46248486D01*
X98020702Y-46176903D01*
X97207605Y-46990000D01*
X96848395Y-46990000D01*
X96834253Y-46975858D01*
X97013858Y-46796253D01*
X97028000Y-46810395D01*
X97841097Y-45997298D01*
X97769514Y-45753329D01*
X97514004Y-45632429D01*
X97239816Y-45563700D01*
X96957488Y-45549783D01*
X96854575Y-45565031D01*
X101812246Y-40607360D01*
X102562245Y-40607360D01*
X102675264Y-40886384D01*
X102989249Y-41041556D01*
X103327473Y-41132491D01*
X103676938Y-41155694D01*
X104024216Y-41110275D01*
X104355960Y-40997977D01*
X104564736Y-40886384D01*
X104677755Y-40607360D01*
X103620000Y-39549605D01*
X102562245Y-40607360D01*
X101812246Y-40607360D01*
X102104508Y-40315098D01*
X102382640Y-40427755D01*
X103440395Y-39370000D01*
X103426253Y-39355858D01*
X103605858Y-39176253D01*
X103620000Y-39190395D01*
X103634143Y-39176253D01*
X103813748Y-39355858D01*
X103813748Y-39355858D01*
G37*
X103813748Y-39355858D02*
X103799605Y-39370000D01*
X104857360Y-40427755D01*
X104971796Y-40381402D01*
X108839000Y-44248606D01*
X108839000Y-55065394D01*
X107389394Y-56515000D01*
X106906713Y-56515000D01*
X106929571Y-56471094D01*
X107000563Y-56252980D01*
X106880594Y-56007000D01*
X105537000Y-56007000D01*
X105537000Y-56027000D01*
X105283000Y-56027000D01*
X105283000Y-56007000D01*
X105263000Y-56007000D01*
X105263000Y-55753000D01*
X105283000Y-55753000D01*
X105283000Y-55733000D01*
X105537000Y-55733000D01*
X105537000Y-55753000D01*
X106880594Y-55753000D01*
X107000563Y-55507020D01*
X106929571Y-55288906D01*
X106785969Y-55013077D01*
X106672781Y-54872059D01*
X106764494Y-54823037D01*
X106861185Y-54743685D01*
X106940537Y-54646994D01*
X106999502Y-54536680D01*
X107035812Y-54416982D01*
X107048072Y-54292500D01*
X107048072Y-52387500D01*
X107035812Y-52263018D01*
X106999502Y-52143320D01*
X106940537Y-52033006D01*
X106861185Y-51936315D01*
X106764494Y-51856963D01*
X106654180Y-51797998D01*
X106534482Y-51761688D01*
X106410000Y-51749428D01*
X104410000Y-51749428D01*
X104285518Y-51761688D01*
X104165820Y-51797998D01*
X104055506Y-51856963D01*
X103958815Y-51936315D01*
X103879463Y-52033006D01*
X103820498Y-52143320D01*
X103784188Y-52263018D01*
X103771928Y-52387500D01*
X103771928Y-54292500D01*
X103784188Y-54416982D01*
X103820498Y-54536680D01*
X103879463Y-54646994D01*
X103958815Y-54743685D01*
X104055506Y-54823037D01*
X104147219Y-54872059D01*
X104034031Y-55013077D01*
X103890429Y-55288906D01*
X103819437Y-55507020D01*
X103871278Y-55613312D01*
X97223617Y-48411681D01*
X97378130Y-48388787D01*
X97644292Y-48293603D01*
X97769514Y-48226671D01*
X97841097Y-47982702D01*
X97028000Y-47169605D01*
X97013858Y-47183748D01*
X96834253Y-47004143D01*
X96848395Y-46990000D01*
X97207605Y-46990000D01*
X98020702Y-47803097D01*
X98264671Y-47731514D01*
X98385571Y-47476004D01*
X98454300Y-47201816D01*
X98468217Y-46919488D01*
X98426787Y-46639870D01*
X98331603Y-46373708D01*
X98264671Y-46248486D01*
X98020702Y-46176903D01*
X97207605Y-46990000D01*
X96848395Y-46990000D01*
X96834253Y-46975858D01*
X97013858Y-46796253D01*
X97028000Y-46810395D01*
X97841097Y-45997298D01*
X97769514Y-45753329D01*
X97514004Y-45632429D01*
X97239816Y-45563700D01*
X96957488Y-45549783D01*
X96854575Y-45565031D01*
X101812246Y-40607360D01*
X102562245Y-40607360D01*
X102675264Y-40886384D01*
X102989249Y-41041556D01*
X103327473Y-41132491D01*
X103676938Y-41155694D01*
X104024216Y-41110275D01*
X104355960Y-40997977D01*
X104564736Y-40886384D01*
X104677755Y-40607360D01*
X103620000Y-39549605D01*
X102562245Y-40607360D01*
X101812246Y-40607360D01*
X102104508Y-40315098D01*
X102382640Y-40427755D01*
X103440395Y-39370000D01*
X103426253Y-39355858D01*
X103605858Y-39176253D01*
X103620000Y-39190395D01*
X103634143Y-39176253D01*
X103813748Y-39355858D01*
M02*
